<svg xmlns="http://www.w3.org/2000/svg" width="30" height="30"><g id="surface215550083"><path style="stroke:none;fill-rule:nonzero;fill:#000;fill-opacity:1" d="M13 3C7.488 3 3 7.488 3 13s4.488 10 10 10a9.946 9.946 0 0 0 6.324-2.266l5.969 5.973c.25.262.625.367.973.273a.99.99 0 0 0 .714-.714.992.992 0 0 0-.273-.973l-5.973-5.973A9.927 9.927 0 0 0 23 13c0-5.512-4.488-10-10-10Zm0 2c4.43 0 8 3.57 8 8s-3.57 8-8 8-8-3.57-8-8 3.57-8 8-8Zm0 0"/><path style="stroke:none;fill-rule:nonzero;fill:#ccc;fill-opacity:1" d="M15.191 14.754v.05h-.16v.442h-.062v-.441h-.16v-.051Zm0 0"/></g></svg>